<svg id="svg" version="1.1" xmlns="http://www.w3.org/2000/svg" xmlns:xlink="http://www.w3.org/1999/xlink" width="400" height="400" viewBox="0, 0, 400,400"><g id="svgg"><path id="path0" d="M188.833 40.010 C 95.407 48.389,30.152 127.468,40.859 219.333 C 53.568 328.369,171.920 392.434,270.833 343.819 C 377.161 291.560,391.586 145.519,297.608 72.760 C 267.488 49.441,225.302 36.740,188.833 40.010 M212.667 48.686 C 297.069 55.320,360.086 131.692,350.998 216.333 C 343.708 284.222,291.280 339.326,223.833 349.988 C 146.719 362.178,73.071 314.036,53.026 238.333 C 49.876 226.434,47.419 205.933,48.174 197.833 C 48.243 197.100,48.380 194.250,48.479 191.500 C 49.831 153.885,68.264 114.777,97.050 88.444 C 129.004 59.213,169.486 45.293,212.667 48.686 M181.522 164.776 C 180.939 165.202,180.937 165.489,181.462 172.193 C 181.762 176.029,182.006 180.217,182.004 181.500 L 182.000 183.833 179.559 183.833 C 173.074 183.833,170.351 188.882,170.070 201.425 L 169.922 208.016 170.799 209.341 C 171.682 210.676,172.026 210.812,174.167 210.672 C 176.362 210.529,178.738 208.250,180.891 204.220 L 182.167 201.833 182.333 208.667 L 182.500 215.500 183.333 215.500 L 184.167 215.500 184.039 190.167 C 183.969 176.233,183.848 164.721,183.769 164.583 C 183.540 164.179,182.178 164.296,181.522 164.776 M272.639 171.241 C 272.401 171.867,272.401 172.383,272.640 172.908 C 273.374 174.520,274.318 187.448,274.156 193.667 C 274.130 194.675,274.084 196.737,274.054 198.250 C 274.024 199.762,273.865 201.000,273.700 201.000 C 273.534 201.000,269.854 196.212,265.520 190.360 C 257.052 178.925,255.010 176.667,253.145 176.667 C 252.810 176.667,253.087 179.710,254.675 193.471 C 255.596 201.455,256.260 208.343,256.150 208.780 C 256.007 209.349,256.193 209.844,256.810 210.536 L 257.669 211.500 258.376 210.667 C 259.227 209.665,259.134 206.791,258.012 199.333 C 257.146 193.579,256.484 185.957,256.783 185.178 C 257.131 184.272,257.613 184.791,264.818 193.833 C 274.469 205.945,274.333 205.759,274.333 206.871 C 274.333 208.623,275.989 209.271,277.592 208.148 C 278.499 207.513,278.530 206.529,277.710 204.429 C 277.067 202.781,277.049 202.474,276.481 183.000 C 276.274 175.882,275.885 172.869,274.984 171.387 C 274.174 170.056,273.114 169.990,272.639 171.241 M111.355 175.980 C 110.945 176.239,110.980 176.735,111.605 179.454 C 113.108 185.996,112.493 189.962,109.580 192.526 C 108.027 193.893,101.808 196.832,101.506 196.342 C 101.097 195.682,100.701 190.903,100.496 184.167 C 100.260 176.428,100.162 176.000,98.623 176.000 C 97.617 176.000,97.608 176.323,98.159 192.590 C 98.803 211.589,98.781 211.333,99.813 211.333 C 101.286 211.333,101.486 210.629,101.091 206.824 C 100.665 202.717,100.912 201.299,102.307 199.861 C 103.282 198.855,112.888 193.090,113.127 193.368 C 113.190 193.441,113.549 197.233,113.926 201.796 C 114.521 209.005,114.695 210.177,115.256 210.738 C 116.494 211.975,117.123 210.741,116.900 207.517 C 116.694 204.544,114.455 181.107,114.132 178.547 C 113.846 176.280,112.641 175.166,111.355 175.980 M159.140 180.797 C 155.296 182.582,153.283 186.083,151.459 194.159 C 149.593 202.417,149.698 202.436,148.822 193.667 C 148.270 188.137,147.484 182.335,147.140 181.250 C 146.919 180.554,145.394 180.455,145.139 181.119 C 144.976 181.543,146.414 204.912,146.857 209.059 C 147.090 211.232,147.500 211.551,149.165 210.855 C 150.089 210.469,150.333 210.153,150.511 209.109 C 153.045 194.253,157.892 183.001,161.242 184.195 C 163.405 184.965,163.271 184.096,164.601 206.000 C 164.817 209.568,164.882 209.840,165.542 209.934 C 167.406 210.200,167.380 210.491,166.843 195.667 C 166.436 184.424,163.506 178.770,159.140 180.797 M293.614 182.325 C 287.098 184.293,279.318 200.030,281.971 205.872 C 284.795 212.091,291.129 205.986,295.842 192.500 C 297.084 188.947,297.333 188.775,297.333 191.469 C 297.333 192.718,297.575 197.135,297.870 201.286 C 298.991 217.067,297.855 224.151,293.501 228.532 C 291.800 230.243,288.928 231.667,287.176 231.667 C 284.624 231.667,284.101 232.666,286.250 233.436 C 295.503 236.752,302.955 223.107,301.687 205.167 C 300.848 193.296,299.919 183.811,299.552 183.365 C 298.587 182.193,295.715 181.690,293.614 182.325 M218.657 183.083 C 212.847 186.018,206.163 202.918,208.618 208.467 C 210.560 212.858,214.506 209.761,220.007 199.527 L 221.785 196.221 222.211 197.453 C 222.446 198.130,222.934 201.228,223.295 204.336 C 223.985 210.263,224.084 210.667,224.841 210.667 C 226.214 210.667,226.236 207.829,224.932 198.667 C 224.515 195.736,224.229 191.887,224.206 188.888 L 224.167 183.942 223.231 183.138 C 222.048 182.120,220.598 182.103,218.657 183.083 M128.481 183.629 C 126.539 184.511,124.910 186.607,123.307 190.286 C 121.192 195.142,120.462 196.487,119.324 197.625 C 117.873 199.076,118.100 199.807,120.043 199.933 L 121.579 200.033 121.737 203.314 C 122.206 213.047,128.264 213.945,137.180 205.605 C 141.223 201.822,143.126 197.962,141.186 197.475 C 140.066 197.194,139.971 197.280,137.378 200.935 C 130.049 211.265,123.500 211.725,124.089 201.869 C 124.347 197.560,124.353 197.552,129.637 194.600 C 135.645 191.243,137.667 189.660,137.667 188.309 C 137.667 184.525,132.408 181.845,128.481 183.629 M200.333 184.301 C 195.542 185.314,193.622 189.002,193.111 198.180 L 192.870 202.500 192.449 200.667 C 192.218 199.658,191.634 195.758,191.153 192.000 C 190.671 188.242,190.252 185.148,190.222 185.125 C 189.771 184.781,188.673 184.757,188.238 185.082 C 187.525 185.613,191.143 210.132,192.016 210.684 C 194.586 212.309,194.944 211.302,195.681 200.372 C 196.381 189.972,197.619 187.687,202.833 187.165 C 206.173 186.831,206.958 186.261,205.917 184.927 C 205.427 184.299,202.103 183.926,200.333 184.301 M295.663 185.162 C 296.229 185.844,296.010 186.523,293.360 192.321 C 289.487 200.797,286.987 204.667,285.385 204.667 C 280.549 204.667,287.510 188.008,293.478 185.297 C 295.129 184.547,295.151 184.546,295.663 185.162 M133.583 186.540 C 135.675 187.865,132.650 191.010,127.347 193.026 C 125.264 193.817,125.055 193.500,126.124 191.167 C 128.309 186.393,130.856 184.814,133.583 186.540 M220.932 188.219 C 221.169 193.151,212.924 207.895,210.698 206.520 C 208.393 205.095,217.565 185.551,220.295 186.071 C 220.707 186.149,220.856 186.652,220.932 188.219 M180.639 186.973 C 184.043 190.377,178.475 208.888,174.234 208.269 C 169.270 207.544,173.302 188.164,178.738 186.617 C 179.912 186.283,179.958 186.291,180.639 186.973 " stroke="none" fill="#5c646c" fill-rule="evenodd"></path><path id="path1" d="M0.000 200.000 L 0.000 400.000 200.000 400.000 L 400.000 400.000 400.000 200.000 L 400.000 0.000 200.000 0.000 L 0.000 0.000 0.000 200.000 M212.438 40.020 C 279.128 44.759,336.744 92.221,354.648 157.167 C 382.122 256.826,309.674 356.147,206.497 360.271 C 115.183 363.920,39.665 291.376,39.657 200.000 C 39.649 106.260,118.407 33.337,212.438 40.020 M188.333 48.673 C 86.994 57.955,23.037 157.729,57.677 252.500 C 90.813 343.158,201.392 380.092,282.218 327.498 C 379.814 263.993,373.088 119.710,270.000 65.402 C 246.002 52.760,214.395 46.285,188.333 48.673 M184.075 175.750 C 184.334 215.125,184.282 216.757,182.799 215.750 C 182.450 215.512,182.021 209.619,181.993 204.667 L 181.981 202.500 180.765 204.780 C 177.818 210.305,173.455 212.578,171.051 209.840 C 169.696 208.297,169.536 207.182,169.769 200.861 C 170.206 189.002,173.209 183.667,179.448 183.667 C 182.340 183.667,182.180 185.132,181.062 168.867 C 180.780 164.753,180.946 164.333,182.857 164.333 L 184.000 164.333 184.075 175.750 M275.359 171.814 C 276.338 174.026,276.606 177.323,276.852 190.167 C 277.064 201.172,277.121 201.971,277.860 204.258 C 278.783 207.112,278.591 208.062,276.981 208.623 C 275.345 209.194,274.177 208.513,274.132 206.963 C 274.103 205.958,273.403 204.888,269.726 200.229 C 261.263 189.505,257.653 185.031,257.276 184.798 C 256.679 184.429,257.173 192.575,258.148 199.167 C 259.061 205.333,259.251 210.283,258.600 210.933 C 257.382 212.152,256.000 210.687,255.999 208.176 C 255.999 207.254,255.326 200.650,254.503 193.500 C 252.814 178.813,252.696 176.662,253.583 176.675 C 255.204 176.698,257.366 179.123,265.415 189.953 L 273.615 200.986 273.857 198.743 C 274.385 193.841,273.549 177.996,272.467 172.414 C 271.989 169.943,274.318 169.460,275.359 171.814 M100.126 176.333 C 100.287 176.490,100.536 180.042,100.680 184.226 C 100.955 192.211,101.259 195.915,101.662 196.164 C 102.041 196.398,107.213 194.114,108.844 192.993 C 112.194 190.688,113.142 185.681,111.436 179.294 C 110.559 176.012,111.645 174.360,113.476 176.190 C 114.699 177.413,117.671 209.623,116.672 210.827 C 115.139 212.675,114.446 210.834,113.853 203.333 C 113.570 199.758,113.247 196.066,113.136 195.128 L 112.934 193.424 108.249 196.128 C 100.917 200.361,100.563 200.892,101.276 206.572 C 101.779 210.570,101.166 212.082,99.286 211.485 C 98.803 211.332,98.662 210.946,98.647 209.728 C 98.636 208.869,98.361 201.192,98.037 192.667 C 97.702 183.853,97.569 176.828,97.729 176.382 C 98.013 175.589,99.336 175.562,100.126 176.333 M162.923 180.819 C 165.841 183.275,167.316 190.952,167.328 203.742 L 167.333 209.318 166.480 209.877 C 164.744 211.014,164.456 209.167,163.461 190.549 C 163.254 186.674,163.154 186.172,162.420 185.299 C 159.124 181.382,154.742 189.541,151.319 205.963 C 150.388 210.431,150.193 210.822,148.698 211.219 C 146.712 211.746,146.821 212.350,145.685 194.500 C 145.312 188.633,144.944 183.268,144.867 182.576 C 144.619 180.334,146.605 179.393,147.315 181.417 C 147.524 182.012,148.070 185.725,148.527 189.667 C 148.984 193.608,149.475 197.583,149.617 198.500 L 149.876 200.167 150.632 196.833 C 153.058 186.125,154.716 182.865,158.754 180.852 C 160.888 179.789,161.690 179.782,162.923 180.819 M298.874 182.692 C 300.169 183.492,300.118 183.223,301.020 194.000 C 302.427 210.815,302.278 215.469,300.122 222.167 C 297.193 231.265,292.349 235.466,286.716 233.794 C 283.679 232.892,283.988 232.089,287.649 231.369 C 296.813 229.567,299.196 221.535,297.502 198.167 C 297.236 194.500,297.008 191.200,296.994 190.833 C 296.981 190.467,296.258 191.967,295.387 194.167 C 290.674 206.082,286.381 210.643,282.926 207.409 C 280.171 204.831,280.764 199.318,284.597 191.861 C 288.832 183.623,294.495 179.986,298.874 182.692 M223.515 183.152 C 224.300 183.937,224.333 184.146,224.333 188.321 C 224.333 191.000,224.606 194.560,225.043 197.586 C 225.434 200.289,225.771 204.300,225.793 206.500 L 225.833 210.500 224.945 210.603 C 223.828 210.732,223.811 210.675,223.175 204.833 C 222.896 202.267,222.500 199.348,222.296 198.348 C 221.860 196.214,222.070 196.012,219.046 201.467 C 213.656 211.189,209.293 213.397,207.980 207.068 C 206.761 201.197,212.889 186.731,218.069 183.250 C 219.921 182.006,222.326 181.962,223.515 183.152 M135.101 184.110 C 136.861 185.142,138.220 187.413,137.882 188.759 C 137.607 189.855,134.964 191.768,129.255 195.006 C 124.280 197.826,124.338 197.727,124.335 203.380 C 124.331 211.717,130.494 210.396,137.463 200.565 C 139.592 197.561,139.833 197.333,140.887 197.333 C 145.181 197.333,137.950 206.825,130.972 210.347 C 124.775 213.476,121.816 210.475,121.345 200.583 C 121.339 200.446,120.819 200.333,120.190 200.333 C 119.196 200.333,118.000 199.660,118.000 199.100 C 118.000 198.998,118.520 198.339,119.155 197.636 C 120.418 196.237,121.195 194.802,123.293 189.985 C 126.268 183.157,130.165 181.218,135.101 184.110 M205.592 184.519 C 207.515 185.866,206.446 186.920,202.714 187.356 C 197.760 187.935,196.386 190.530,195.843 200.333 C 195.331 209.582,194.927 211.333,193.307 211.333 C 191.581 211.333,191.435 210.837,189.487 198.333 C 187.390 184.874,187.390 184.876,188.914 184.729 C 190.386 184.587,190.473 184.867,191.494 193.010 C 192.661 202.317,192.848 202.828,193.081 197.333 C 193.389 190.072,194.943 186.439,198.437 184.812 C 200.546 183.830,204.384 183.673,205.592 184.519 M293.167 185.552 C 287.547 188.505,280.993 204.667,285.414 204.667 C 286.864 204.667,289.992 199.528,293.970 190.613 C 296.420 185.121,296.233 183.941,293.167 185.552 M129.051 187.161 C 126.959 189.051,124.931 193.333,126.128 193.333 C 128.103 193.333,134.333 188.910,134.333 187.508 C 134.333 185.824,130.788 185.591,129.051 187.161 M218.256 187.750 C 216.031 190.159,210.333 202.502,210.333 204.912 C 210.333 208.867,214.146 204.554,218.949 195.167 C 222.045 189.115,221.581 184.150,218.256 187.750 M177.655 187.413 C 173.594 190.142,170.590 203.282,173.138 207.170 C 175.714 211.101,181.343 200.359,181.328 191.541 C 181.321 186.915,180.226 185.685,177.655 187.413 " stroke="none" fill="#fcfcfc" fill-rule="evenodd"></path><path id="path2" d="M196.917 48.235 C 197.329 48.315,198.004 48.315,198.417 48.235 C 198.829 48.156,198.492 48.091,197.667 48.091 C 196.842 48.091,196.504 48.156,196.917 48.235 M200.917 48.235 C 201.329 48.315,202.004 48.315,202.417 48.235 C 202.829 48.156,202.492 48.091,201.667 48.091 C 200.842 48.091,200.504 48.156,200.917 48.235 M304.667 90.104 C 304.667 90.162,305.154 90.649,305.750 91.188 L 306.833 92.167 305.854 91.083 C 304.942 90.074,304.667 89.847,304.667 90.104 M91.146 94.083 L 90.167 95.167 91.250 94.188 C 92.260 93.275,92.487 93.000,92.229 93.000 C 92.172 93.000,91.684 93.487,91.146 94.083 M276.411 182.333 C 276.411 182.975,276.479 183.237,276.563 182.917 C 276.647 182.596,276.647 182.071,276.563 181.750 C 276.479 181.429,276.411 181.692,276.411 182.333 M100.417 182.833 C 100.421 183.567,100.489 183.827,100.569 183.413 C 100.649 182.998,100.646 182.398,100.562 182.079 C 100.479 181.761,100.414 182.100,100.417 182.833 M181.411 192.667 C 181.411 193.308,181.479 193.571,181.563 193.250 C 181.647 192.929,181.647 192.404,181.563 192.083 C 181.479 191.762,181.411 192.025,181.411 192.667 M274.091 193.333 C 274.091 194.158,274.156 194.496,274.235 194.083 C 274.315 193.671,274.315 192.996,274.235 192.583 C 274.156 192.171,274.091 192.508,274.091 193.333 M184.103 197.833 C 184.105 198.933,184.167 199.343,184.242 198.744 C 184.316 198.145,184.314 197.245,184.238 196.744 C 184.162 196.243,184.101 196.733,184.103 197.833 M48.095 200.167 C 48.098 201.083,48.163 201.419,48.239 200.912 C 48.316 200.405,48.314 199.655,48.235 199.245 C 48.156 198.835,48.093 199.250,48.095 200.167 M351.751 200.167 C 351.754 200.900,351.823 201.161,351.902 200.746 C 351.982 200.331,351.979 199.731,351.896 199.413 C 351.812 199.094,351.747 199.433,351.751 200.167 M169.779 202.333 C 169.779 203.708,169.838 204.271,169.909 203.583 C 169.981 202.896,169.981 201.771,169.909 201.083 C 169.838 200.396,169.779 200.958,169.779 202.333 M98.411 201.667 C 98.411 202.308,98.479 202.571,98.563 202.250 C 98.647 201.929,98.647 201.404,98.563 201.083 C 98.479 200.762,98.411 201.025,98.411 201.667 M167.116 203.333 C 167.116 204.892,167.174 205.529,167.244 204.750 C 167.314 203.971,167.314 202.696,167.244 201.917 C 167.174 201.137,167.116 201.775,167.116 203.333 M90.000 304.771 C 90.000 304.828,90.487 305.316,91.083 305.854 L 92.167 306.833 91.188 305.750 C 90.275 304.740,90.000 304.513,90.000 304.771 M197.254 351.902 C 197.669 351.982,198.269 351.979,198.587 351.896 C 198.906 351.812,198.567 351.747,197.833 351.751 C 197.100 351.754,196.839 351.823,197.254 351.902 M201.250 351.902 C 201.662 351.981,202.338 351.981,202.750 351.902 C 203.162 351.822,202.825 351.757,202.000 351.757 C 201.175 351.757,200.838 351.822,201.250 351.902 " stroke="none" fill="#949ca4" fill-rule="evenodd"></path><path id="path3" d="M276.411 179.667 C 276.411 180.308,276.479 180.571,276.563 180.250 C 276.647 179.929,276.647 179.404,276.563 179.083 C 276.479 178.762,276.411 179.025,276.411 179.667 M100.411 180.667 C 100.411 181.308,100.479 181.571,100.563 181.250 C 100.647 180.929,100.647 180.404,100.563 180.083 C 100.479 179.762,100.411 180.025,100.411 180.667 M224.095 189.167 C 224.098 190.083,224.163 190.419,224.239 189.912 C 224.316 189.405,224.314 188.655,224.235 188.245 C 224.156 187.835,224.093 188.250,224.095 189.167 M276.744 192.667 C 276.744 193.308,276.813 193.571,276.896 193.250 C 276.980 192.929,276.980 192.404,276.896 192.083 C 276.813 191.762,276.744 192.025,276.744 192.667 M184.100 193.667 C 184.100 194.675,184.162 195.088,184.239 194.583 C 184.315 194.079,184.315 193.254,184.239 192.750 C 184.162 192.246,184.100 192.658,184.100 193.667 M167.077 199.000 C 167.077 199.642,167.146 199.904,167.230 199.583 C 167.314 199.262,167.314 198.737,167.230 198.417 C 167.146 198.096,167.077 198.358,167.077 199.000 M124.077 202.333 C 124.077 202.975,124.146 203.237,124.230 202.917 C 124.314 202.596,124.314 202.071,124.230 201.750 C 124.146 201.429,124.077 201.692,124.077 202.333 M181.917 202.250 C 181.850 202.387,181.897 203.025,182.021 203.667 L 182.246 204.833 182.289 203.417 C 182.331 202.087,182.199 201.673,181.917 202.250 " stroke="none" fill="#b4b4bc" fill-rule="evenodd"></path><path id="path4" d="M184.100 189.667 C 184.100 190.675,184.162 191.088,184.239 190.583 C 184.315 190.079,184.315 189.254,184.239 188.750 C 184.162 188.246,184.100 188.658,184.100 189.667 M276.744 190.667 C 276.744 191.308,276.813 191.571,276.896 191.250 C 276.980 190.929,276.980 190.404,276.896 190.083 C 276.813 189.762,276.744 190.025,276.744 190.667 M297.077 192.000 C 297.077 192.642,297.146 192.904,297.230 192.583 C 297.314 192.262,297.314 191.737,297.230 191.417 C 297.146 191.096,297.077 191.358,297.077 192.000 M121.294 201.073 C 121.447 201.999,121.494 202.045,121.599 201.378 C 121.667 200.945,121.586 200.452,121.418 200.284 C 121.233 200.099,121.184 200.410,121.294 201.073 M124.084 204.500 C 124.088 205.233,124.156 205.494,124.236 205.079 C 124.315 204.665,124.312 204.065,124.229 203.746 C 124.146 203.427,124.080 203.767,124.084 204.500 M182.107 207.333 C 182.107 208.525,182.167 209.012,182.241 208.417 C 182.315 207.821,182.315 206.846,182.241 206.250 C 182.167 205.654,182.107 206.142,182.107 207.333 M298.109 210.833 C 298.111 212.117,298.171 212.601,298.243 211.909 C 298.315 211.218,298.314 210.168,298.241 209.576 C 298.167 208.984,298.108 209.550,298.109 210.833 " stroke="none" fill="#d4d4d4" fill-rule="evenodd"></path></g></svg>