<?xml version="1.0" encoding="UTF-8"?>
<svg xmlns="http://www.w3.org/2000/svg" xmlns:xlink="http://www.w3.org/1999/xlink" width="20pt" height="20pt" viewBox="0 0 20 20" version="1.1">
<g id="surface1">
<path style=" stroke:none;fill-rule:evenodd;fill:rgb(0%,0%,0%);fill-opacity:1;" d="M 10 0.25 C 4.476562 0.25 0 4.726562 0 10.25 C 0 14.667969 2.863281 18.414062 6.839844 19.738281 C 7.339844 19.828125 7.523438 19.519531 7.523438 19.253906 C 7.523438 19.015625 7.511719 18.230469 7.507812 17.394531 C 4.726562 18 4.140625 16.214844 4.140625 16.214844 C 3.683594 15.058594 3.027344 14.75 3.027344 14.75 C 2.121094 14.128906 3.097656 14.144531 3.097656 14.144531 C 4.101562 14.214844 4.628906 15.171875 4.628906 15.171875 C 5.523438 16.703125 6.972656 16.257812 7.542969 16.003906 C 7.632812 15.359375 7.890625 14.917969 8.175781 14.667969 C 5.953125 14.414062 3.621094 13.554688 3.621094 9.726562 C 3.621094 8.632812 4.011719 7.742188 4.648438 7.039062 C 4.546875 6.789062 4.203125 5.773438 4.746094 4.394531 C 4.746094 4.394531 5.585938 4.125 7.496094 5.417969 C 8.292969 5.199219 9.148438 5.085938 10 5.082031 C 10.847656 5.085938 11.707031 5.199219 12.503906 5.417969 C 14.414062 4.125 15.25 4.394531 15.25 4.394531 C 15.796875 5.773438 15.453125 6.789062 15.351562 7.039062 C 15.992188 7.742188 16.378906 8.632812 16.378906 9.726562 C 16.378906 13.566406 14.039062 14.410156 11.8125 14.65625 C 12.171875 14.96875 12.492188 15.578125 12.492188 16.507812 C 12.492188 17.847656 12.480469 18.921875 12.480469 19.253906 C 12.480469 19.519531 12.660156 19.828125 13.167969 19.730469 C 17.140625 18.410156 20 14.660156 20 10.246094 C 20 4.722656 15.523438 0.246094 10 0.246094 Z M 10 0.25 "/>
</g>
</svg>
