<?xml version="1.0" ?><svg contentScriptType="text/ecmascript" contentStyleType="text/css" enable-background="new 0 0 2048 2048" height="2048px" id="Layer_1" preserveAspectRatio="xMidYMid meet" version="1.1" viewBox="0.0 0 1536.0 2048" width="1536.0px" xml:space="preserve" xmlns="http://www.w3.org/2000/svg" xmlns:xlink="http://www.w3.org/1999/xlink" zoomAndPan="magnify"><path d="M1024,1504v-160c0-9.333-3-17-9-23s-13.667-9-23-9h-96V800c0-9.333-3-17-9-23s-13.667-9-23-9H544c-9.333,0-17,3-23,9  s-9,13.667-9,23v160c0,9.333,3,17,9,23s13.667,9,23,9h96v320h-96c-9.333,0-17,3-23,9s-9,13.667-9,23v160c0,9.333,3,17,9,23  s13.667,9,23,9h448c9.333,0,17-3,23-9S1024,1513.333,1024,1504z M896,608V448c0-9.333-3-17-9-23s-13.667-9-23-9H672  c-9.333,0-17,3-23,9s-9,13.667-9,23v160c0,9.333,3,17,9,23s13.667,9,23,9h192c9.333,0,17-3,23-9S896,617.333,896,608z M1536,1024  c0,139.333-34.333,267.833-103,385.5s-161.833,210.833-279.5,279.5S907.333,1792,768,1792s-267.833-34.333-385.5-103  S171.667,1527.167,103,1409.5S0,1163.333,0,1024s34.333-267.833,103-385.5S264.833,427.667,382.5,359S628.667,256,768,256  s267.833,34.333,385.5,103s210.833,161.833,279.5,279.5S1536,884.667,1536,1024z"/></svg>